<svg xmlns="http://www.w3.org/2000/svg" width="24" height="24" viewBox="0 0 24 24"><rect id="hint-top-margin" width="1" height="6"/><rect id="hint-bottom-margin" width="1" height="6"/><rect id="hint-left-margin" width="6" height="1"/><rect id="hint-right-margin" width="6" height="1"/><g id="topleft"><rect x="0" y="0" width="6" height="6" fill="#232530"/><rect x="0" y="0" width="6" height="1" fill="#383B4B"/><rect x="0" y="0" width="1" height="6" fill="#383B4B"/></g><g id="top"><rect x="6" y="0" width="12" height="6" fill="#232530"/><rect x="6" y="0" width="12" height="1" fill="#383B4B"/></g><g id="topright"><rect x="18" y="0" width="6" height="6" fill="#232530"/><rect x="18" y="0" width="6" height="1" fill="#383B4B"/><rect x="23" y="0" width="1" height="6" fill="#383B4B"/></g><g id="left"><rect x="0" y="6" width="6" height="12" fill="#232530"/><rect x="0" y="6" width="1" height="12" fill="#383B4B"/></g><rect id="center" x="6" y="6" width="12" height="12" fill="#232530"/><g id="right"><rect x="18" y="6" width="6" height="12" fill="#232530"/><rect x="23" y="6" width="1" height="12" fill="#383B4B"/></g><g id="bottomleft"><rect x="0" y="18" width="6" height="6" fill="#232530"/><rect x="0" y="23" width="6" height="1" fill="#383B4B"/><rect x="0" y="18" width="1" height="6" fill="#383B4B"/></g><g id="bottom"><rect x="6" y="18" width="12" height="6" fill="#232530"/><rect x="6" y="23" width="12" height="1" fill="#383B4B"/></g><g id="bottomright"><rect x="18" y="18" width="6" height="6" fill="#232530"/><rect x="18" y="23" width="6" height="1" fill="#383B4B"/><rect x="23" y="18" width="1" height="6" fill="#383B4B"/></g></svg>
